HIERARCHY
ROOT Hips
{
	OFFSET -3.958830 18.904000 13.208200
	CHANNELS 6 Xposition Yposition Zposition Zrotation Yrotation Xrotation 
	JOINT LHipJoint
	{
		OFFSET 0.000000 0.000000 0.000000
		CHANNELS 3 Zrotation Yrotation Xrotation
		JOINT LeftUpLeg
		{
			OFFSET 1.800000 -1.400000 0.085000
			CHANNELS 3 Zrotation Yrotation Xrotation
			JOINT LeftLeg
			{
				OFFSET 2.215000 -6.000000 0.000000
				CHANNELS 3 Zrotation Yrotation Xrotation
				JOINT LeftFoot
				{
					OFFSET 2.500000 -6.900000 0.000000
					CHANNELS 3 Zrotation Yrotation Xrotation
					JOINT LeftToeBase
					{
						OFFSET 0.200000 -0.500000 1.950000
						CHANNELS 3 Zrotation Yrotation Xrotation
						End Site
						{
							OFFSET 0.000000 0.000000 0.000000
						}
					}
				}
			}
		}
	}
	JOINT RHipJoint
	{
		OFFSET 0.000000 0.000000 0.000000
		CHANNELS 3 Zrotation Yrotation Xrotation
		JOINT RightUpLeg
		{
			OFFSET -1.800000 -1.400000 0.085000
			CHANNELS 3 Zrotation Yrotation Xrotation
			JOINT RightLeg
			{
				OFFSET -2.215000 -6.000000 0.000000
				CHANNELS 3 Zrotation Yrotation Xrotation
				JOINT RightFoot
				{
					OFFSET -2.500000 -6.900000 0.000000
					CHANNELS 3 Zrotation Yrotation Xrotation
					JOINT RightToeBase
					{
						OFFSET -0.200000 -0.500000 1.950000
						CHANNELS 3 Zrotation Yrotation Xrotation
						End Site
						{
							OFFSET 0.000000 0.000000 0.000000
						}
					}
				}
			}
		}
	}
	JOINT LowerBack
	{
		OFFSET 0.000000 0.000000 0.000000
		CHANNELS 3 Zrotation Yrotation Xrotation
		JOINT Spine
		{
			OFFSET -0.087000 1.940000 -0.288900
			CHANNELS 3 Zrotation Yrotation Xrotation
			JOINT Spine1
			{
				OFFSET 0.000000 1.950000 0.060000
				CHANNELS 3 Zrotation Yrotation Xrotation
				JOINT Neck
				{
					OFFSET 0.000000 0.000000 0.000000
					CHANNELS 3 Zrotation Yrotation Xrotation
					JOINT Neck1
					{
						OFFSET 0.000000 1.600000 0.340000
						CHANNELS 3 Zrotation Yrotation Xrotation
						JOINT Head
						{
							OFFSET 0.000000 1.667000 -0.240000
							CHANNELS 3 Zrotation Yrotation Xrotation
							End Site
							{
								OFFSET 0.000000 0.000000 0.000000
							}
						}
					}
				}
				JOINT LeftShoulder
				{
					OFFSET 0.000000 0.000000 0.000000
					CHANNELS 3 Zrotation Yrotation Xrotation
					JOINT LeftArm
					{
						OFFSET 2.700000 1.550000 -0.730000
						CHANNELS 3 Zrotation Yrotation Xrotation
						JOINT LeftForeArm
						{
							OFFSET 5.450000 0.000000 0.000000
							CHANNELS 3 Zrotation Yrotation Xrotation
							JOINT LeftHand
							{
								OFFSET 3.450000 0.000000 0.000000
								CHANNELS 3 Zrotation Yrotation Xrotation
								JOINT LeftHandIndex1
								{
									OFFSET 0.750000 0.000000 0.000000
									CHANNELS 3 Zrotation Yrotation Xrotation
									End Site
									{
										OFFSET 0.000000 0.000000 0.000000
									}
								}
							}
						}
					}
				}
				JOINT RightShoulder
				{
					OFFSET 0.000000 0.000000 0.000000
					CHANNELS 3 Zrotation Yrotation Xrotation
					JOINT RightArm
					{
						OFFSET -2.700000 1.550000 -0.730000
						CHANNELS 3 Zrotation Yrotation Xrotation
						JOINT RightForeArm
						{
							OFFSET -5.450000 0.000000 0.000000
							CHANNELS 3 Zrotation Yrotation Xrotation
							JOINT RightHand
							{
								OFFSET -3.450000 0.000000 0.000000
								CHANNELS 3 Zrotation Yrotation Xrotation
								JOINT RightHandIndex1
								{
									OFFSET -0.750000 0.000000 0.000000
									CHANNELS 3 Zrotation Yrotation Xrotation
									End Site
									{
										OFFSET 0.000000 0.000000 0.000000
									}
								}
							}
						}
					}
				}
			}
		}
	}
}
MOTION
Frames: 7
Frame Time: 0.016667
0.905470 16.135330 -5.396730 -0.627507 -1.118007 -6.835315 -14.913873 10.270436 4.937367 27.216258 2.253534 -33.899461 -21.125618 16.117049 30.063206 0.512687 9.087527 1.274556 0.172170 0.096610 -0.088070 18.930567 -10.025484 3.363861 6.570135 8.715100 -13.587552 19.851623 -9.810286 28.249100 -0.935007 -5.547290 2.338549 -0.054270 0.301780 0.136000 -4.921619 2.006395 -9.112780 3.750159 -1.850757 47.153963 -16.960461 6.957404 2.579262 0.396826 -8.877399 -16.027243 -14.718063 -3.803500 25.724180 10.788770 -9.756500 -21.942810 1.517423 -4.704491 5.038178 -7.801448 7.642114 -3.541170 16.042703 14.502001 0.821113 -4.144775 2.656124 0.530630 -0.194150 0.151650 0.239790 -1.859972 18.006239 13.763679 17.356259 2.410104 -0.662742 6.631510 -5.573782 -0.685055 2.843519 -0.742730 -0.105690 0.337020 0.061840 0.172280 
0.825460 16.109070 -5.388860 -1.526018 -4.668304 -6.996448 -14.945508 10.110059 5.114389 27.787941 2.227824 -34.449195 -22.587587 17.030678 31.161413 0.578160 9.550959 1.142885 0.124360 0.037130 -0.107500 18.943523 -9.941725 3.372538 9.376135 8.304154 -12.307816 17.808013 -9.441066 28.987951 -0.926767 -5.479304 2.367271 -0.068860 0.344910 0.129260 -4.913375 2.055453 -9.156023 0.369241 -1.083787 49.428528 -16.381802 6.013252 0.587878 0.200509 -9.321213 -16.032107 -14.980477 -2.335879 23.623296 10.687200 -8.294360 -22.371060 2.409043 -3.665372 4.812359 -12.591655 8.541122 -4.125337 17.616898 14.104622 1.154396 -4.161826 2.653307 0.542320 -0.174650 0.128560 0.222200 -2.278263 17.316576 13.798903 17.537637 0.848519 -1.344707 6.206672 -6.270426 -0.748757 2.847965 -0.679871 -0.149080 0.376340 0.106650 0.158760 
0.755720 16.068880 -5.389230 -2.445247 -9.064013 -6.318990 -14.995781 9.735197 5.474291 28.805858 2.450514 -35.865677 -25.837505 18.789230 32.153715 0.747834 10.261117 0.941996 0.118580 0.029480 -0.108760 18.971216 -9.773754 3.385519 12.223785 8.254626 -11.709400 15.595552 -9.068358 30.471964 -0.920314 -5.516141 2.350368 -0.055310 0.382430 0.142680 -4.953023 2.284755 -9.270596 -2.726084 -0.139540 51.448486 -15.933286 4.251742 -3.154526 0.085754 -9.623730 -15.405128 -14.691053 -0.156901 20.218661 9.687340 -6.173670 -21.496920 2.254957 -1.034619 4.084364 -17.999853 11.439099 -4.863703 22.274794 8.210220 1.277572 -4.089576 2.794048 0.500540 -0.131230 0.087950 0.218980 -2.039185 14.861710 13.292024 15.402398 -0.977751 -1.567636 5.653127 -1.964462 -0.688735 2.741562 -0.767180 -0.159190 0.364100 0.118010 0.155790 
0.697330 16.030640 -5.407000 -3.240202 -14.880320 -4.711712 -15.110708 9.313344 5.943124 30.127509 3.438801 -37.771056 -30.582693 20.975215 31.880559 0.936345 10.982067 0.737231 0.124070 0.033200 -0.109850 18.957172 -9.464236 3.412609 15.015970 8.705151 -11.843417 12.826636 -8.340419 32.446071 -0.917798 -5.497946 2.348305 -0.040130 0.395210 0.160740 -4.928863 2.362134 -9.442844 -5.983740 2.116469 51.543176 -15.168111 3.528571 -6.067139 0.345098 -10.174077 -14.651678 -15.446763 0.953567 18.142895 8.686260 -5.198960 -21.895810 0.739474 1.152928 3.182958 -20.019427 11.787922 -4.859366 24.184886 6.688411 1.435369 -4.074654 2.847295 0.492280 -0.110720 0.073790 0.214170 -0.792662 12.765310 12.607074 11.727797 -3.061693 -1.683444 4.495820 0.784040 -0.574738 2.676883 -0.816839 -0.162800 0.360690 0.134690 0.148970 
0.652970 16.007160 -5.435360 -4.705412 -20.246052 -2.815227 -15.220264 8.967392 6.264901 30.907324 4.252564 -39.917548 -33.706563 22.638669 32.028563 1.005694 11.520549 0.579757 0.131290 0.023290 -0.069480 18.939553 -9.127440 3.510747 17.676059 9.632386 -12.610553 10.440614 -7.684233 34.877377 -0.941221 -5.535695 2.308372 -0.009120 0.404580 0.163960 -4.960172 2.343653 -9.584182 -7.769452 2.900947 50.324488 -16.039307 2.959557 -6.561563 1.206980 -11.011318 -14.165300 -17.015254 2.457522 16.265278 6.845400 -3.867620 -23.094620 -1.961699 1.942979 2.523553 -19.866735 11.163172 -4.397703 25.564802 7.706340 1.697681 -4.097968 2.828722 0.516960 -0.099880 0.068580 0.186740 0.592637 11.804855 11.984416 7.098639 -4.135117 -1.419755 4.445486 1.288250 -0.622742 2.632853 -0.781640 -0.201180 0.410260 0.172290 0.112930 
0.629600 15.983770 -5.461610 -6.071525 -24.572593 -1.037184 -15.266821 8.723667 6.413419 29.809193 3.932488 -42.730529 -35.016821 23.886898 33.633715 1.051557 11.892568 0.509407 0.139060 0.059320 -0.054680 18.934172 -8.969902 3.617811 19.629777 10.206035 -13.244450 8.981410 -7.282463 36.776420 -0.955747 -5.633120 2.291677 0.057890 0.461280 0.105430 -5.084726 2.458921 -9.647029 -8.990670 2.843511 49.352305 -17.197320 2.064196 -6.658380 1.654370 -11.568921 -14.107978 -17.956167 4.041418 14.135892 6.003060 -2.905760 -23.252110 -3.483957 1.866559 2.273920 -20.803523 10.692785 -4.282433 26.859176 7.922942 1.858671 -4.117124 2.756232 0.501640 -0.068540 0.036220 0.193810 1.511054 11.637752 11.847926 2.910255 -4.731006 -0.944118 3.746420 -0.713111 -0.837238 2.652949 -0.708415 -0.265620 0.523570 0.176720 0.109670 
0.553350 15.940020 -5.456080 -7.267641 -27.163086 1.328797 -15.346005 8.409736 6.727653 29.221384 3.353196 -45.560507 -40.532271 24.806958 31.780367 1.139733 12.139749 0.443813 0.186700 0.092740 -0.039530 18.909433 -8.738847 3.600504 20.682363 10.250402 -13.466217 10.329818 -7.789965 36.775195 -1.009082 -5.753140 2.212143 0.100840 0.469700 0.147650 -5.100553 2.329814 -9.779477 -10.757552 2.525342 47.160816 -17.603773 0.598692 -7.019779 1.810499 -11.794850 -13.878147 -18.822624 6.318880 12.669522 6.159020 -1.654850 -23.514800 -3.963083 1.862317 2.490796 -21.148001 10.599904 -3.873075 26.493108 7.325884 1.646690 -4.114122 2.815466 0.515890 -0.061970 0.038060 0.199750 1.984197 10.652974 11.093521 -0.022117 -4.869541 -0.801238 3.272137 -3.193448 -1.035534 2.694226 -0.701505 -0.261940 0.519060 0.199140 0.100010 
